<svg width="31" height="31" viewBox="0 0 31 31" fill="none" xmlns="http://www.w3.org/2000/svg">
<path d="M15.5 16.4375C17.5711 16.4375 19.25 14.7586 19.25 12.6875C19.25 10.6164 17.5711 8.9375 15.5 8.9375C13.4289 8.9375 11.75 10.6164 11.75 12.6875C11.75 14.7586 13.4289 16.4375 15.5 16.4375Z" stroke="white" stroke-width="3" stroke-linecap="round" stroke-linejoin="round"/>
<path d="M24.875 12.6875C24.875 21.125 15.5 27.6875 15.5 27.6875C15.5 27.6875 6.125 21.125 6.125 12.6875C6.125 10.2011 7.11272 7.81653 8.87087 6.05837C10.629 4.30022 13.0136 3.3125 15.5 3.3125C17.9864 3.3125 20.371 4.30022 22.1291 6.05837C23.8873 7.81653 24.875 10.2011 24.875 12.6875V12.6875Z" stroke="white" stroke-width="3" stroke-linecap="round" stroke-linejoin="round"/>
</svg>
