<svg width="33" height="32" viewBox="0 0 33 32" fill="none" xmlns="http://www.w3.org/2000/svg">
<path d="M11.5 18.5C11.5 16.8189 11.9985 15.1755 12.9325 13.7777C13.8665 12.3798 15.194 11.2904 16.7472 10.647C18.3004 10.0037 20.0094 9.83535 21.6583 10.1633C23.3071 10.4913 24.8217 11.3008 26.0104 12.4896C27.1992 13.6783 28.0087 15.1929 28.3367 16.8417C28.6647 18.4906 28.4963 20.1996 27.853 21.7528C27.2096 23.306 26.1202 24.6335 24.7223 25.5675C23.3245 26.5015 21.6811 27 20 27H10C8.54131 27 7.14236 26.4205 6.11091 25.3891C5.07946 24.3576 4.5 22.9587 4.5 21.5C4.5 20.0413 5.07946 18.6424 6.11091 17.6109C7.14236 16.5795 8.54131 16 10 16C10.6086 15.9969 11.2133 16.0983 11.7875 16.3" stroke="#1758FE" stroke-width="2" stroke-linecap="round" stroke-linejoin="round"/>
<path d="M10.4625 7.08745L9.9375 4.13745" stroke="#1758FE" stroke-width="2" stroke-linecap="round" stroke-linejoin="round"/>
<path d="M6.5875 9.56252L4.125 7.83752" stroke="#1758FE" stroke-width="2" stroke-linecap="round" stroke-linejoin="round"/>
<path d="M5.58745 14.0375L2.63745 14.5625" stroke="#1758FE" stroke-width="2" stroke-linecap="round" stroke-linejoin="round"/>
<path d="M14.9375 8.0875L16.6625 5.625" stroke="#1758FE" stroke-width="2" stroke-linecap="round" stroke-linejoin="round"/>
<path d="M6.95005 16.925C6.2491 16.0995 5.77903 15.1033 5.58755 14.0375C5.33361 12.5957 5.61556 11.1108 6.3803 9.86246C7.14504 8.61411 8.33981 7.68842 9.73961 7.25972C11.1394 6.83103 12.6476 6.9289 13.9803 7.53491C15.3129 8.14092 16.3781 9.21325 16.9751 10.55" stroke="#1758FE" stroke-width="2" stroke-linecap="round" stroke-linejoin="round"/>
</svg>
