<svg width="33" height="32" viewBox="0 0 33 32" fill="none" xmlns="http://www.w3.org/2000/svg">
<path d="M11.5 11.5C11.5 9.81886 11.9985 8.17547 12.9325 6.77766C13.8665 5.37984 15.194 4.29037 16.7472 3.64703C18.3004 3.00368 20.0094 2.83535 21.6583 3.16333C23.3071 3.4913 24.8217 4.30085 26.0104 5.4896C27.1992 6.67834 28.0087 8.1929 28.3367 9.84174C28.6647 11.4906 28.4963 13.1996 27.853 14.7528C27.2096 16.306 26.1202 17.6335 24.7223 18.5675C23.3245 19.5015 21.6811 20 20 20H10C8.54131 20 7.14236 19.4205 6.11091 18.3891C5.07946 17.3576 4.5 15.9587 4.5 14.5C4.5 13.0413 5.07946 11.6424 6.11091 10.6109C7.14236 9.57947 8.54131 9 10 9C10.6086 8.99687 11.2133 9.09835 11.7875 9.3" stroke="#1758FE" stroke-width="2" stroke-linecap="round" stroke-linejoin="round"/>
<path d="M11.4375 24.5C11.4375 25.2939 10.7939 25.9375 10 25.9375C9.20609 25.9375 8.5625 25.2939 8.5625 24.5C8.5625 23.7061 9.20609 23.0625 10 23.0625C10.7939 23.0625 11.4375 23.7061 11.4375 24.5Z" fill="#1758FE" stroke="#1758FE" stroke-width="0.125"/>
<path d="M16.4375 26.5C16.4375 27.2939 15.7939 27.9375 15 27.9375C14.2061 27.9375 13.5625 27.2939 13.5625 26.5C13.5625 25.7061 14.2061 25.0625 15 25.0625C15.7939 25.0625 16.4375 25.7061 16.4375 26.5Z" fill="#1758FE" stroke="#1758FE" stroke-width="0.125"/>
<path d="M22.4375 24.5C22.4375 25.2939 21.7939 25.9375 21 25.9375C20.2061 25.9375 19.5625 25.2939 19.5625 24.5C19.5625 23.7061 20.2061 23.0625 21 23.0625C21.7939 23.0625 22.4375 23.7061 22.4375 24.5Z" fill="#1758FE" stroke="#1758FE" stroke-width="0.125"/>
<path d="M10.4375 29.5C10.4375 30.2939 9.79391 30.9375 9 30.9375C8.20609 30.9375 7.5625 30.2939 7.5625 29.5C7.5625 28.7061 8.20609 28.0625 9 28.0625C9.79391 28.0625 10.4375 28.7061 10.4375 29.5Z" fill="#1758FE" stroke="#1758FE" stroke-width="0.125"/>
<path d="M21.4375 29.5C21.4375 30.2939 20.7939 30.9375 20 30.9375C19.2061 30.9375 18.5625 30.2939 18.5625 29.5C18.5625 28.7061 19.2061 28.0625 20 28.0625C20.7939 28.0625 21.4375 28.7061 21.4375 29.5Z" fill="#1758FE" stroke="#1758FE" stroke-width="0.125"/>
</svg>
