<svg width="33" height="32" viewBox="0 0 33 32" fill="none" xmlns="http://www.w3.org/2000/svg">
<path d="M16.5 30L19.7875 25H13.5L16.7875 20" stroke="#1758FE" stroke-width="2" stroke-linecap="round" stroke-linejoin="round"/>
<path d="M11.5 11.5C11.5 9.81886 11.9985 8.17547 12.9325 6.77766C13.8665 5.37984 15.194 4.29037 16.7472 3.64703C18.3004 3.00368 20.0094 2.83535 21.6583 3.16333C23.3071 3.4913 24.8217 4.30085 26.0104 5.4896C27.1992 6.67834 28.0087 8.1929 28.3367 9.84174C28.6647 11.4906 28.4963 13.1996 27.853 14.7528C27.2096 16.306 26.1202 17.6335 24.7223 18.5675C23.3245 19.5015 21.6811 20 20 20H10C8.54131 20 7.14236 19.4205 6.11091 18.3891C5.07946 17.3576 4.5 15.9587 4.5 14.5C4.5 13.0413 5.07946 11.6424 6.11091 10.6109C7.14236 9.57947 8.54131 9 10 9C10.6086 8.99687 11.2133 9.09835 11.7875 9.3" stroke="#1758FE" stroke-width="2" stroke-linecap="round" stroke-linejoin="round"/>
</svg>
