<svg width="33" height="33" viewBox="0 0 33 33" fill="none" xmlns="http://www.w3.org/2000/svg">
<path d="M16.6875 24.5375C16.8772 25.0521 17.2042 25.5048 17.6332 25.8465C18.0621 26.1882 18.5765 26.4058 19.1205 26.4756C19.6644 26.5454 20.2171 26.4648 20.7184 26.2425C21.2197 26.0202 21.6506 25.6647 21.964 25.2148C22.2775 24.7648 22.4616 24.2375 22.4964 23.6902C22.5311 23.1429 22.4152 22.5965 22.1612 22.1105C21.9072 21.6244 21.5248 21.2173 21.0556 20.9334C20.5864 20.6495 20.0484 20.4996 19.5 20.5H5.5" stroke="#1758FE" stroke-width="2" stroke-linecap="round" stroke-linejoin="round"/>
<path d="M12.6875 8.4625C12.8772 7.94793 13.2042 7.4952 13.6332 7.1535C14.0621 6.81181 14.5765 6.59423 15.1205 6.52441C15.6644 6.4546 16.2171 6.53521 16.7184 6.75751C17.2197 6.9798 17.6506 7.33526 17.964 7.78525C18.2775 8.23524 18.4616 8.76254 18.4964 9.30984C18.5311 9.85714 18.4152 10.4035 18.1612 10.8895C17.9072 11.3756 17.5248 11.7827 17.0556 12.0666C16.5864 12.3505 16.0484 12.5004 15.5 12.5H3.5" stroke="#1758FE" stroke-width="2" stroke-linecap="round" stroke-linejoin="round"/>
<path d="M23.6875 12.4625C23.8772 11.9479 24.2042 11.4952 24.6332 11.1535C25.0621 10.8118 25.5765 10.5942 26.1205 10.5244C26.6644 10.4546 27.2171 10.5352 27.7184 10.7575C28.2197 10.9798 28.6506 11.3353 28.964 11.7852C29.2775 12.2352 29.4616 12.7625 29.4964 13.3098C29.5311 13.8571 29.4152 14.4035 29.1612 14.8895C28.9072 15.3756 28.5248 15.7827 28.0556 16.0666C27.5864 16.3505 27.0484 16.5004 26.5 16.5H4.5" stroke="#1758FE" stroke-width="2" stroke-linecap="round" stroke-linejoin="round"/>
</svg>
