<svg width="33" height="32" viewBox="0 0 33 32" fill="none" xmlns="http://www.w3.org/2000/svg">
<path d="M20.5 26H13.5" stroke="#1758FE" stroke-width="2" stroke-linecap="round" stroke-linejoin="round"/>
<path d="M12 13.5C12 11.8189 12.4985 10.1755 13.4325 8.77766C14.3665 7.37984 15.694 6.29037 17.2472 5.64703C18.8004 5.00368 20.5094 4.83535 22.1583 5.16333C23.8071 5.4913 25.3217 6.30085 26.5104 7.4896C27.6992 8.67834 28.5087 10.1929 28.8367 11.8417C29.1647 13.4906 28.9963 15.1996 28.353 16.7528C27.7096 18.306 26.6202 19.6335 25.2223 20.5675C23.8245 21.5015 22.1811 22 20.5 22H10.5C9.04131 22 7.64236 21.4205 6.61091 20.3891C5.57946 19.3576 5 17.9587 5 16.5C5 15.0413 5.57946 13.6424 6.61091 12.6109C7.64236 11.5795 9.04131 11 10.5 11C11.1086 10.9969 11.7133 11.0983 12.2875 11.3" stroke="#1758FE" stroke-width="2" stroke-linecap="round" stroke-linejoin="round"/>
</svg>
