<svg width="33" height="33" viewBox="0 0 33 33" fill="none" xmlns="http://www.w3.org/2000/svg">
<path d="M27 13C28.3807 13 29.5 11.8807 29.5 10.5C29.5 9.11929 28.3807 8 27 8C25.6193 8 24.5 9.11929 24.5 10.5C24.5 11.8807 25.6193 13 27 13Z" stroke="#1758FE" stroke-width="2" stroke-linecap="round" stroke-linejoin="round"/>
<path d="M11.5 18.875V6.5C11.5 5.43913 11.9214 4.42172 12.6716 3.67157C13.4217 2.92143 14.4391 2.5 15.5 2.5C16.5609 2.5 17.5783 2.92143 18.3284 3.67157C19.0786 4.42172 19.5 5.43913 19.5 6.5V18.875C20.5669 19.7079 21.3471 20.8531 21.7318 22.1507C22.1166 23.4484 22.0867 24.8338 21.6462 26.1136C21.2058 27.3934 20.3769 28.5038 19.275 29.2899C18.1732 30.076 16.8535 30.4985 15.5 30.4985C14.1465 30.4985 12.8268 30.076 11.725 29.2899C10.6231 28.5038 9.79419 27.3934 9.35376 26.1136C8.91333 24.8338 8.88341 23.4484 9.26816 22.1507C9.65291 20.8531 10.4331 19.7079 11.5 18.875Z" stroke="#1758FE" stroke-width="2" stroke-linecap="round" stroke-linejoin="round"/>
<path d="M15.5 26.5C16.8807 26.5 18 25.3807 18 24C18 22.6193 16.8807 21.5 15.5 21.5C14.1193 21.5 13 22.6193 13 24C13 25.3807 14.1193 26.5 15.5 26.5Z" stroke="#1758FE" stroke-width="2" stroke-linecap="round" stroke-linejoin="round"/>
<path d="M15.5 21.5V11.5" stroke="#1758FE" stroke-width="2" stroke-linecap="round" stroke-linejoin="round"/>
</svg>
